<mxfile host="Electron" modified="2024-05-14T06:41:06.898Z" agent="Mozilla/5.0 (Windows NT 10.0; Win64; x64) AppleWebKit/537.36 (KHTML, like Gecko) draw.io/24.4.0 Chrome/120.0.6099.109 Electron/28.1.0 Safari/537.36" etag="W9pq4fNtfmkucbxxbT0Y" version="24.4.0" type="device">
  <diagram id="C5RBs43oDa-KdzZeNtuy" name="Page-1">
    <mxGraphModel dx="1098" dy="820" grid="1" gridSize="10" guides="1" tooltips="1" connect="1" arrows="1" fold="1" page="1" pageScale="1" pageWidth="827" pageHeight="1169" math="0" shadow="0">
      <root>
        <mxCell id="WIyWlLk6GJQsqaUBKTNV-0" />
        <mxCell id="WIyWlLk6GJQsqaUBKTNV-1" parent="WIyWlLk6GJQsqaUBKTNV-0" />
        <mxCell id="n4vD3fFOSPQbCt1qds4k-6" style="edgeStyle=orthogonalEdgeStyle;rounded=0;orthogonalLoop=1;jettySize=auto;html=1;entryX=0.5;entryY=0;entryDx=0;entryDy=0;" edge="1" parent="WIyWlLk6GJQsqaUBKTNV-1" source="WIyWlLk6GJQsqaUBKTNV-3" target="n4vD3fFOSPQbCt1qds4k-1">
          <mxGeometry relative="1" as="geometry" />
        </mxCell>
        <mxCell id="WIyWlLk6GJQsqaUBKTNV-3" value="result = {x0: y0}&lt;div&gt;x, y = x0, y0&lt;/div&gt;&lt;div&gt;i = 1&lt;/div&gt;" style="rounded=1;whiteSpace=wrap;html=1;fontSize=12;glass=0;strokeWidth=1;shadow=0;" parent="WIyWlLk6GJQsqaUBKTNV-1" vertex="1">
          <mxGeometry x="150" y="130" width="120" height="50" as="geometry" />
        </mxCell>
        <mxCell id="n4vD3fFOSPQbCt1qds4k-9" value="Да" style="edgeStyle=orthogonalEdgeStyle;rounded=0;orthogonalLoop=1;jettySize=auto;html=1;entryX=0.5;entryY=0;entryDx=0;entryDy=0;" edge="1" parent="WIyWlLk6GJQsqaUBKTNV-1" source="WIyWlLk6GJQsqaUBKTNV-6" target="n4vD3fFOSPQbCt1qds4k-4">
          <mxGeometry relative="1" as="geometry" />
        </mxCell>
        <mxCell id="n4vD3fFOSPQbCt1qds4k-12" value="Нет" style="edgeStyle=orthogonalEdgeStyle;rounded=0;orthogonalLoop=1;jettySize=auto;html=1;entryX=0;entryY=0.5;entryDx=0;entryDy=0;" edge="1" parent="WIyWlLk6GJQsqaUBKTNV-1" source="WIyWlLk6GJQsqaUBKTNV-6" target="n4vD3fFOSPQbCt1qds4k-11">
          <mxGeometry relative="1" as="geometry" />
        </mxCell>
        <mxCell id="WIyWlLk6GJQsqaUBKTNV-6" value="r &amp;gt; epsilon?" style="rhombus;whiteSpace=wrap;html=1;shadow=0;fontFamily=Helvetica;fontSize=12;align=center;strokeWidth=1;spacing=6;spacingTop=-4;" parent="WIyWlLk6GJQsqaUBKTNV-1" vertex="1">
          <mxGeometry x="160" y="360" width="100" height="60" as="geometry" />
        </mxCell>
        <mxCell id="n4vD3fFOSPQbCt1qds4k-5" style="edgeStyle=orthogonalEdgeStyle;rounded=0;orthogonalLoop=1;jettySize=auto;html=1;entryX=0.5;entryY=0;entryDx=0;entryDy=0;" edge="1" parent="WIyWlLk6GJQsqaUBKTNV-1" source="n4vD3fFOSPQbCt1qds4k-0" target="WIyWlLk6GJQsqaUBKTNV-3">
          <mxGeometry relative="1" as="geometry" />
        </mxCell>
        <mxCell id="n4vD3fFOSPQbCt1qds4k-0" value="Начало" style="ellipse;whiteSpace=wrap;html=1;" vertex="1" parent="WIyWlLk6GJQsqaUBKTNV-1">
          <mxGeometry x="150" y="50" width="120" height="50" as="geometry" />
        </mxCell>
        <mxCell id="n4vD3fFOSPQbCt1qds4k-7" style="edgeStyle=orthogonalEdgeStyle;rounded=0;orthogonalLoop=1;jettySize=auto;html=1;entryX=0.5;entryY=0;entryDx=0;entryDy=0;" edge="1" parent="WIyWlLk6GJQsqaUBKTNV-1" source="n4vD3fFOSPQbCt1qds4k-1" target="n4vD3fFOSPQbCt1qds4k-2">
          <mxGeometry relative="1" as="geometry" />
        </mxCell>
        <mxCell id="n4vD3fFOSPQbCt1qds4k-1" value="yn = y+h+f(x,y)&lt;div&gt;xn = x+h&lt;/div&gt;" style="rounded=1;whiteSpace=wrap;html=1;fontSize=12;glass=0;strokeWidth=1;shadow=0;" vertex="1" parent="WIyWlLk6GJQsqaUBKTNV-1">
          <mxGeometry x="150" y="210" width="120" height="50" as="geometry" />
        </mxCell>
        <mxCell id="n4vD3fFOSPQbCt1qds4k-8" style="edgeStyle=orthogonalEdgeStyle;rounded=0;orthogonalLoop=1;jettySize=auto;html=1;entryX=0.5;entryY=0;entryDx=0;entryDy=0;" edge="1" parent="WIyWlLk6GJQsqaUBKTNV-1" source="n4vD3fFOSPQbCt1qds4k-2" target="WIyWlLk6GJQsqaUBKTNV-6">
          <mxGeometry relative="1" as="geometry" />
        </mxCell>
        <mxCell id="n4vD3fFOSPQbCt1qds4k-2" value="yh = y+h/2+f(x,y)&lt;div&gt;yh = yh+h/2+f(x+h/2,yh)&lt;/div&gt;&lt;div&gt;r = (yn-yh) / 2^2-1&lt;/div&gt;" style="rounded=1;whiteSpace=wrap;html=1;fontSize=12;glass=0;strokeWidth=1;shadow=0;" vertex="1" parent="WIyWlLk6GJQsqaUBKTNV-1">
          <mxGeometry x="140" y="290" width="140" height="50" as="geometry" />
        </mxCell>
        <mxCell id="n4vD3fFOSPQbCt1qds4k-10" style="edgeStyle=orthogonalEdgeStyle;rounded=0;orthogonalLoop=1;jettySize=auto;html=1;entryX=0;entryY=0.5;entryDx=0;entryDy=0;" edge="1" parent="WIyWlLk6GJQsqaUBKTNV-1" source="n4vD3fFOSPQbCt1qds4k-4" target="n4vD3fFOSPQbCt1qds4k-1">
          <mxGeometry relative="1" as="geometry">
            <Array as="points">
              <mxPoint x="110" y="475" />
              <mxPoint x="110" y="235" />
            </Array>
          </mxGeometry>
        </mxCell>
        <mxCell id="n4vD3fFOSPQbCt1qds4k-4" value="h /= 2" style="rounded=1;whiteSpace=wrap;html=1;fontSize=12;glass=0;strokeWidth=1;shadow=0;" vertex="1" parent="WIyWlLk6GJQsqaUBKTNV-1">
          <mxGeometry x="150" y="460" width="120" height="30" as="geometry" />
        </mxCell>
        <mxCell id="n4vD3fFOSPQbCt1qds4k-14" style="edgeStyle=orthogonalEdgeStyle;rounded=0;orthogonalLoop=1;jettySize=auto;html=1;entryX=0.5;entryY=0;entryDx=0;entryDy=0;" edge="1" parent="WIyWlLk6GJQsqaUBKTNV-1" source="n4vD3fFOSPQbCt1qds4k-11" target="n4vD3fFOSPQbCt1qds4k-13">
          <mxGeometry relative="1" as="geometry" />
        </mxCell>
        <mxCell id="n4vD3fFOSPQbCt1qds4k-11" value="y = yn&lt;div&gt;x = xn&lt;/div&gt;&lt;div&gt;result += {x: y}&lt;/div&gt;" style="rounded=1;whiteSpace=wrap;html=1;fontSize=12;glass=0;strokeWidth=1;shadow=0;" vertex="1" parent="WIyWlLk6GJQsqaUBKTNV-1">
          <mxGeometry x="310" y="366.25" width="120" height="47.5" as="geometry" />
        </mxCell>
        <mxCell id="n4vD3fFOSPQbCt1qds4k-17" value="Да" style="edgeStyle=orthogonalEdgeStyle;rounded=0;orthogonalLoop=1;jettySize=auto;html=1;" edge="1" parent="WIyWlLk6GJQsqaUBKTNV-1" source="n4vD3fFOSPQbCt1qds4k-13" target="n4vD3fFOSPQbCt1qds4k-16">
          <mxGeometry relative="1" as="geometry" />
        </mxCell>
        <mxCell id="n4vD3fFOSPQbCt1qds4k-20" value="Нет" style="edgeStyle=orthogonalEdgeStyle;rounded=0;orthogonalLoop=1;jettySize=auto;html=1;entryX=0.5;entryY=0;entryDx=0;entryDy=0;" edge="1" parent="WIyWlLk6GJQsqaUBKTNV-1" source="n4vD3fFOSPQbCt1qds4k-13" target="n4vD3fFOSPQbCt1qds4k-19">
          <mxGeometry relative="1" as="geometry" />
        </mxCell>
        <mxCell id="n4vD3fFOSPQbCt1qds4k-13" value="x &amp;lt; x2?&lt;div&gt;i &amp;lt; 1/h?&lt;/div&gt;" style="rhombus;whiteSpace=wrap;html=1;shadow=0;fontFamily=Helvetica;fontSize=12;align=center;strokeWidth=1;spacing=6;spacingTop=-4;" vertex="1" parent="WIyWlLk6GJQsqaUBKTNV-1">
          <mxGeometry x="320" y="440" width="100" height="60" as="geometry" />
        </mxCell>
        <mxCell id="n4vD3fFOSPQbCt1qds4k-18" style="edgeStyle=orthogonalEdgeStyle;rounded=0;orthogonalLoop=1;jettySize=auto;html=1;entryX=1;entryY=0.5;entryDx=0;entryDy=0;" edge="1" parent="WIyWlLk6GJQsqaUBKTNV-1" source="n4vD3fFOSPQbCt1qds4k-16" target="n4vD3fFOSPQbCt1qds4k-1">
          <mxGeometry relative="1" as="geometry">
            <Array as="points">
              <mxPoint x="520" y="235" />
            </Array>
          </mxGeometry>
        </mxCell>
        <mxCell id="n4vD3fFOSPQbCt1qds4k-16" value="i++" style="rounded=1;whiteSpace=wrap;html=1;fontSize=12;glass=0;strokeWidth=1;shadow=0;" vertex="1" parent="WIyWlLk6GJQsqaUBKTNV-1">
          <mxGeometry x="460" y="455" width="120" height="30" as="geometry" />
        </mxCell>
        <mxCell id="n4vD3fFOSPQbCt1qds4k-19" value="Конец" style="ellipse;whiteSpace=wrap;html=1;" vertex="1" parent="WIyWlLk6GJQsqaUBKTNV-1">
          <mxGeometry x="310" y="530" width="120" height="50" as="geometry" />
        </mxCell>
      </root>
    </mxGraphModel>
  </diagram>
</mxfile>
